<svg width="144" height="48" viewBox="0 0 144 48" fill="none" xmlns="http://www.w3.org/2000/svg">
<g clip-path="url(#clip0_1435_7567)">
<path d="M132.533 0.000156H11.4737C11.0325 0.000156 10.5965 0.000156 10.1564 0.002556C9.78796 0.004956 9.42249 0.011928 9.05054 0.017796C8.24249 0.0272782 7.43635 0.0981675 6.63911 0.229848C5.84299 0.364395 5.07181 0.618055 4.35165 0.982248C3.63237 1.34952 2.97514 1.82676 2.40381 2.39664C1.82948 2.96492 1.35074 3.62178 0.98598 4.34195C0.620217 5.06069 0.366595 5.83088 0.233875 6.62593C0.0998928 7.41998 0.0277959 8.22318 0.018231 9.02833C0.00706378 9.39625 0.00588447 9.7654 0 10.1334V37.8705C0.00588447 38.2431 0.00706378 38.604 0.018231 38.9768C0.0277988 39.7819 0.0998957 40.585 0.233875 41.379C0.366228 42.1745 0.619865 42.9452 0.98598 43.6642C1.35057 44.382 1.82939 45.0362 2.40381 45.6014C2.97298 46.1738 3.63063 46.6513 4.35165 47.0158C5.0718 47.381 5.8429 47.6361 6.63911 47.7728C7.43648 47.9034 8.24254 47.9743 9.05054 47.9849C9.42249 47.9931 9.78796 47.9978 10.1564 47.9978C10.5965 48.0002 11.0325 48.0002 11.4737 48.0002H132.533C132.965 48.0002 133.405 48.0002 133.837 47.9978C134.204 47.9978 134.58 47.9931 134.947 47.9849C135.753 47.9749 136.558 47.9039 137.353 47.7728C138.152 47.6352 138.926 47.3801 139.65 47.0158C140.37 46.6511 141.027 46.1736 141.596 45.6014C142.169 45.034 142.648 44.3803 143.018 43.6642C143.381 42.9447 143.632 42.1741 143.763 41.379C143.897 40.5849 143.971 39.7819 143.986 38.9768C143.991 38.604 143.991 38.2431 143.991 37.8705C144 37.4345 144 37.001 144 36.5579V11.4435C144 11.0041 144 10.5681 143.991 10.1334C143.991 9.7654 143.991 9.39625 143.986 9.02828C143.971 8.22306 143.897 7.42004 143.763 6.62588C143.632 5.83129 143.381 5.06116 143.018 4.3419C142.275 2.89839 141.097 1.72339 139.65 0.98214C138.926 0.618837 138.152 0.365245 137.353 0.22974C136.558 0.0974794 135.753 0.0265653 134.947 0.017628C134.58 0.011772 134.204 0.00474 133.837 0.0024C133.405 0 132.965 0.000156 132.533 0.000156Z" fill="#A6A6A6"/>
<path d="M10.1625 46.95C9.79583 46.95 9.43805 46.9453 9.07428 46.9371C8.32071 46.9274 7.5689 46.8619 6.82501 46.7414C6.13138 46.6223 5.45944 46.4007 4.83134 46.0839C4.20901 45.7698 3.6414 45.3579 3.15024 44.864C2.65197 44.376 2.23714 43.8099 1.92219 43.1882C1.60376 42.5625 1.3834 41.8919 1.26876 41.1996C1.14496 40.4557 1.07798 39.7036 1.0684 38.9496C1.06077 38.6965 1.05078 37.8539 1.05078 37.8539V10.1332C1.05078 10.1332 1.06142 9.3035 1.06846 9.05975C1.07764 8.30697 1.14423 7.55597 1.26765 6.81326C1.3825 6.11909 1.60304 5.44649 1.92164 4.81874C2.23543 4.19752 2.64796 3.63102 3.14322 3.1412C3.63793 2.64673 4.20736 2.23271 4.83076 1.91424C5.4574 1.5985 6.12808 1.37847 6.82031 1.26151C7.56663 1.13979 8.32105 1.07398 9.07724 1.06464L10.1631 1.04999H133.832L134.93 1.06523C135.68 1.07411 136.427 1.13933 137.167 1.26034C137.866 1.37876 138.544 1.60033 139.177 1.91776C140.426 2.55957 141.442 3.57498 142.084 4.82167C142.397 5.44508 142.614 6.1122 142.728 6.80037C142.852 7.54918 142.922 8.30607 142.937 9.06503C142.94 9.40487 142.94 9.76991 142.94 10.1332C142.95 10.5832 142.95 11.0115 142.95 11.4433V36.5577C142.95 36.9937 142.95 37.4191 142.94 37.848C142.94 38.2382 142.94 38.5957 142.935 38.9636C142.921 39.709 142.853 40.4524 142.73 41.1878C142.618 41.8851 142.398 42.561 142.08 43.1918C141.763 43.8067 141.35 44.3679 140.858 44.8547C140.366 45.3512 139.798 45.7655 139.174 46.0817C138.542 46.4009 137.865 46.6233 137.167 46.7414C136.423 46.8626 135.671 46.928 134.917 46.9371C134.565 46.9453 134.196 46.95 133.837 46.95L132.533 46.9524L10.1625 46.95Z" fill="black"/>
<path d="M29.8066 24.3608C29.8196 23.3592 30.0864 22.3771 30.5822 21.506C31.078 20.6348 31.7867 19.9029 32.6424 19.3783C32.0988 18.6041 31.3817 17.967 30.548 17.5175C29.7142 17.0681 28.7869 16.8187 27.8396 16.7891C25.8189 16.5776 23.8598 17.9949 22.8301 17.9949C21.7804 17.9949 20.195 16.8101 18.4877 16.8451C17.3834 16.8807 16.3072 17.2009 15.3639 17.7746C14.4206 18.3483 13.6424 19.1558 13.1052 20.1186C10.7778 24.1367 12.5138 30.0419 14.7432 33.2899C15.8586 34.8803 17.1622 36.6568 18.8679 36.5938C20.537 36.5248 21.1604 35.5324 23.1752 35.5324C25.1713 35.5324 25.7562 36.5938 27.4965 36.5538C29.2876 36.5248 30.4161 34.9563 31.4923 33.3508C32.2937 32.2176 32.9104 30.9651 33.3195 29.6398C32.279 29.2009 31.391 28.4663 30.7663 27.5275C30.1416 26.5888 29.8078 25.4874 29.8066 24.3608Z" fill="white"/>
<path d="M26.5201 14.653C27.4967 13.484 27.9778 11.9814 27.8613 10.4643C26.3693 10.6206 24.9911 11.3316 24.0014 12.4558C23.5174 13.005 23.1468 13.6439 22.9106 14.3361C22.6745 15.0282 22.5774 15.7599 22.6251 16.4895C23.3713 16.4972 24.1096 16.3359 24.7843 16.0178C25.459 15.6997 26.0525 15.233 26.5201 14.653Z" fill="white"/>
<path d="M50.9062 32.5675H45.2102L43.8423 36.5953H41.4297L46.8249 21.6937H49.3315L54.7267 36.5953H52.2729L50.9062 32.5675ZM45.8001 30.7089H50.3152L48.0894 24.1722H48.0271L45.8001 30.7089Z" fill="white"/>
<path d="M66.378 31.1636C66.378 34.5398 64.5659 36.7089 61.8313 36.7089C61.1385 36.7451 60.4496 36.5859 59.8434 36.2498C59.2371 35.9136 58.7381 35.414 58.4033 34.8081H58.3516V40.1894H56.1152V25.7308H58.2799V27.5378H58.3211C58.6712 26.9349 59.1787 26.4378 59.7895 26.0996C60.4004 25.7614 61.0918 25.5947 61.7901 25.6171C64.5553 25.6171 66.378 27.7968 66.378 31.1636ZM64.0794 31.1636C64.0794 28.964 62.9394 27.5179 61.2002 27.5179C59.4915 27.5179 58.3422 28.9945 58.3422 31.1636C58.3422 33.3527 59.4915 34.8187 61.2002 34.8187C62.9395 34.8187 64.0794 33.3831 64.0794 31.1636Z" fill="white"/>
<path d="M78.3702 31.1636C78.3702 34.5398 76.5581 36.7089 73.8235 36.7089C73.1307 36.745 72.4418 36.5859 71.8356 36.2498C71.2293 35.9136 70.7302 35.414 70.3955 34.8081H70.3438V40.1894H68.1074V25.7308H70.2721V27.5378H70.3132C70.6633 26.9349 71.1708 26.4378 71.7817 26.0996C72.3926 25.7614 73.0839 25.5947 73.7823 25.6171C76.5475 25.6171 78.3702 27.7968 78.3702 31.1636ZM76.0715 31.1636C76.0715 28.964 74.9316 27.5179 73.1924 27.5179C71.4837 27.5179 70.3344 28.9945 70.3344 31.1636C70.3344 33.3527 71.4837 34.8187 73.1924 34.8187C74.9316 34.8187 76.0715 33.3831 76.0715 31.1636Z" fill="white"/>
<path d="M86.2951 32.4433C86.4608 33.921 87.9004 34.8913 89.8676 34.8913C91.7526 34.8913 93.1087 33.921 93.1087 32.5886C93.1087 31.4319 92.2908 30.7394 90.3541 30.2647L88.4175 29.7995C85.6735 29.1386 84.3996 27.8589 84.3996 25.7823C84.3996 23.2112 86.6465 21.4452 89.8371 21.4452C92.9947 21.4452 95.1594 23.2112 95.2322 25.7823H92.9747C92.8396 24.2952 91.6068 23.3975 89.8053 23.3975C88.0038 23.3975 86.771 24.3057 86.771 25.6276C86.771 26.6811 87.5584 27.3011 89.4845 27.7756L91.1309 28.1787C94.1969 28.9018 95.4708 30.13 95.4708 32.3096C95.4708 35.0975 93.2438 36.8436 89.7019 36.8436C86.3879 36.8436 84.1504 35.1385 84.0059 32.4432L86.2951 32.4433Z" fill="white"/>
<path d="M100.298 23.1597V25.7308H102.37V27.4968H100.298V33.4863C100.298 34.4168 100.713 34.8504 101.623 34.8504C101.869 34.8461 102.115 34.8289 102.359 34.7988V36.5542C101.95 36.6305 101.533 36.6651 101.117 36.6574C98.9111 36.6574 98.0509 35.8312 98.0509 33.7241V27.4968H96.4668V25.7308H98.0509V23.1597H100.298Z" fill="white"/>
<path d="M103.568 31.1636C103.568 27.7453 105.587 25.5972 108.736 25.5972C111.894 25.5972 113.904 27.7452 113.904 31.1636C113.904 34.5914 111.905 36.73 108.736 36.73C105.567 36.73 103.568 34.5914 103.568 31.1636ZM111.625 31.1636C111.625 28.8187 110.548 27.4347 108.736 27.4347C106.923 27.4347 105.847 28.8293 105.847 31.1636C105.847 33.5179 106.923 34.8914 108.736 34.8914C110.548 34.8914 111.625 33.5179 111.625 31.1636Z" fill="white"/>
<path d="M115.748 25.7308H117.881V27.58H117.933C118.077 27.0025 118.416 26.4921 118.894 26.1346C119.371 25.7771 119.957 25.5944 120.553 25.6171C120.811 25.6162 121.068 25.6441 121.32 25.7003V27.7863C120.994 27.6871 120.655 27.6416 120.315 27.6515C119.99 27.6384 119.666 27.6955 119.365 27.8189C119.065 27.9424 118.794 28.1293 118.573 28.3668C118.352 28.6042 118.184 28.8867 118.083 29.1947C117.981 29.5027 117.948 29.829 117.984 30.1511V36.5953H115.748L115.748 25.7308Z" fill="white"/>
<path d="M131.631 33.4043C131.33 35.3765 129.404 36.73 126.939 36.73C123.77 36.73 121.803 34.6125 121.803 31.2152C121.803 27.8074 123.781 25.5972 126.845 25.5972C129.86 25.5972 131.755 27.6621 131.755 30.9562V31.7203H124.06V31.855C124.025 32.2549 124.075 32.6577 124.207 33.0367C124.34 33.4157 124.552 33.7622 124.829 34.0533C125.106 34.3443 125.443 34.5733 125.815 34.7248C126.188 34.8764 126.589 34.9471 126.991 34.9324C127.52 34.9818 128.05 34.8597 128.503 34.5844C128.957 34.309 129.309 33.8951 129.507 33.4042L131.631 33.4043ZM124.071 30.1617H129.518C129.538 29.8022 129.483 29.4424 129.357 29.1049C129.231 28.7675 129.037 28.4596 128.786 28.2007C128.535 27.9418 128.233 27.7374 127.899 27.6003C127.565 27.4633 127.206 27.3965 126.845 27.4043C126.481 27.4021 126.12 27.4719 125.783 27.6096C125.446 27.7472 125.14 27.9501 124.882 28.2065C124.624 28.4628 124.419 28.7676 124.28 29.1032C124.141 29.4388 124.07 29.7985 124.071 30.1617Z" fill="white"/>
<path d="M45.5194 10.4772C45.9882 10.4436 46.4587 10.5143 46.8968 10.684C47.335 10.8537 47.7299 11.1183 48.0531 11.4586C48.3764 11.799 48.6198 12.2066 48.7659 12.6521C48.912 13.0977 48.9571 13.57 48.898 14.035C48.898 16.3225 47.6582 17.6374 45.5194 17.6374H42.9258V10.4772H45.5194ZM44.041 16.6248H45.3948C45.7298 16.6448 46.0651 16.59 46.3762 16.4644C46.6873 16.3389 46.9665 16.1458 47.1933 15.8991C47.4201 15.6524 47.5889 15.3584 47.6874 15.0385C47.7859 14.7185 47.8117 14.3807 47.7627 14.0496C47.8081 13.7198 47.7798 13.3841 47.6798 13.0665C47.5797 12.7489 47.4105 12.4573 47.1842 12.2125C46.9579 11.9678 46.6801 11.7761 46.3707 11.651C46.0614 11.5259 45.7281 11.4706 45.3948 11.489H44.041V16.6248Z" fill="white"/>
<path d="M50.1586 14.9332C50.1245 14.5781 50.1652 14.2198 50.2782 13.8813C50.3911 13.5428 50.5737 13.2316 50.8143 12.9676C51.0549 12.7037 51.3482 12.4927 51.6753 12.3484C52.0025 12.2041 52.3562 12.1295 52.714 12.1295C53.0717 12.1295 53.4255 12.2041 53.7526 12.3484C54.0797 12.4927 54.373 12.7037 54.6136 12.9676C54.8542 13.2316 55.0368 13.5428 55.1498 13.8813C55.2627 14.2198 55.3034 14.5781 55.2694 14.9332C55.3041 15.2886 55.2638 15.6474 55.1512 15.9864C55.0386 16.3255 54.8561 16.6373 54.6154 16.9018C54.3747 17.1663 54.0812 17.3776 53.7538 17.5223C53.4263 17.6669 53.0721 17.7416 52.714 17.7416C52.3558 17.7416 52.0016 17.6669 51.6742 17.5223C51.3467 17.3776 51.0532 17.1663 50.8125 16.9018C50.5719 16.6373 50.3894 16.3255 50.2767 15.9864C50.1641 15.6474 50.1239 15.2886 50.1586 14.9332ZM54.1694 14.9332C54.1694 13.7619 53.6417 13.0769 52.7157 13.0769C51.7862 13.0769 51.2633 13.7619 51.2633 14.9332C51.2633 16.1139 51.7862 16.7935 52.7157 16.7935C53.6418 16.7935 54.1694 16.1091 54.1694 14.9332Z" fill="white"/>
<path d="M62.0626 17.6373H60.9532L59.8333 13.6576H59.7487L58.6334 17.6373H57.5347L56.041 12.2338H57.1257L58.0964 16.357H58.1763L59.2904 12.2338H60.3163L61.4303 16.357H61.5149L62.4809 12.2338H63.5503L62.0626 17.6373Z" fill="white"/>
<path d="M64.8066 12.2338H65.8361V13.0922H65.916C66.0516 12.7839 66.2802 12.5254 66.5701 12.3528C66.8599 12.1803 67.1966 12.1022 67.533 12.1295C67.7967 12.1097 68.0614 12.1493 68.3076 12.2455C68.5538 12.3416 68.7752 12.4917 68.9553 12.6847C69.1354 12.8777 69.2697 13.1087 69.3482 13.3605C69.4266 13.6122 69.4473 13.8784 69.4086 14.1392V17.6372H68.3392V14.407C68.3392 13.5387 67.9608 13.1068 67.1699 13.1068C66.9909 13.0985 66.8122 13.1289 66.6461 13.1959C66.4799 13.2629 66.3303 13.3649 66.2074 13.495C66.0845 13.625 65.9913 13.78 65.9341 13.9494C65.8769 14.1188 65.8571 14.2984 65.876 14.4761V17.6373H64.8066L64.8066 12.2338Z" fill="white"/>
<path d="M71.1113 10.1244H72.1807V17.6373H71.1113V10.1244Z" fill="white"/>
<path d="M73.6683 14.9332C73.6343 14.5781 73.675 14.2198 73.788 13.8813C73.9009 13.5428 74.0836 13.2316 74.3242 12.9676C74.5648 12.7036 74.8581 12.4927 75.1853 12.3483C75.5125 12.204 75.8663 12.1295 76.224 12.1295C76.5817 12.1295 76.9355 12.204 77.2627 12.3483C77.5899 12.4927 77.8832 12.7036 78.1238 12.9676C78.3644 13.2316 78.5471 13.5428 78.66 13.8813C78.773 14.2198 78.8137 14.5781 78.7797 14.9332C78.8144 15.2887 78.7741 15.6475 78.6614 15.9865C78.5487 16.3255 78.3662 16.6373 78.1255 16.9018C77.8848 17.1663 77.5913 17.3776 77.2638 17.5223C76.9364 17.6669 76.5822 17.7416 76.224 17.7416C75.8658 17.7416 75.5116 17.6669 75.1842 17.5223C74.8567 17.3776 74.5632 17.1663 74.3225 16.9018C74.0818 16.6373 73.8993 16.3255 73.7866 15.9865C73.6739 15.6475 73.6336 15.2887 73.6683 14.9332ZM77.6791 14.9332C77.6791 13.7619 77.1515 13.077 76.2255 13.077C75.2959 13.077 74.773 13.7619 74.773 14.9332C74.773 16.1139 75.2959 16.7936 76.2255 16.7936C77.1515 16.7936 77.6791 16.1092 77.6791 14.9332Z" fill="white"/>
<path d="M79.9062 16.1092C79.9062 15.1365 80.6325 14.5758 81.9216 14.4961L83.3894 14.4117V13.9453C83.3894 13.3746 83.011 13.0524 82.2801 13.0524C81.6831 13.0524 81.2694 13.2709 81.1507 13.653H80.1154C80.2247 12.7248 81.1002 12.1295 82.3294 12.1295C83.6879 12.1295 84.4541 12.8039 84.4541 13.9453V17.6373H83.4247V16.878H83.3401C83.1683 17.1503 82.9272 17.3724 82.6412 17.5215C82.3553 17.6705 82.0348 17.7412 81.7125 17.7264C81.485 17.7499 81.2551 17.7257 81.0376 17.6553C80.82 17.5849 80.6197 17.4698 80.4496 17.3174C80.2794 17.165 80.1431 16.9788 80.0495 16.7707C79.956 16.5626 79.9071 16.3373 79.9062 16.1092ZM83.3894 15.6475V15.1957L82.0662 15.2801C81.32 15.3299 80.9815 15.583 80.9815 16.0594C80.9815 16.5457 81.4046 16.8287 81.9863 16.8287C82.1568 16.8459 82.329 16.8288 82.4926 16.7783C82.6563 16.7277 82.8081 16.6449 82.939 16.5347C83.0699 16.4245 83.1773 16.2892 83.2546 16.1367C83.332 15.9843 83.3779 15.8179 83.3894 15.6475Z" fill="white"/>
<path d="M85.8594 14.9332C85.8594 13.2258 86.7396 12.1441 88.1086 12.1441C88.4473 12.1286 88.7834 12.2095 89.0776 12.3773C89.3719 12.5452 89.6121 12.7931 89.7703 13.0921H89.8502V10.1244H90.9196V17.6373H89.8949V16.7836H89.8103C89.6399 17.0806 89.3912 17.3254 89.0913 17.4916C88.7914 17.6577 88.4515 17.7389 88.1086 17.7263C86.7302 17.7264 85.8594 16.6447 85.8594 14.9332ZM86.9641 14.9332C86.9641 16.0793 87.5058 16.7689 88.4119 16.7689C89.3132 16.7689 89.8702 16.0693 89.8702 14.9379C89.8702 13.8117 89.3074 13.1021 88.4119 13.1021C87.5117 13.1021 86.9641 13.7965 86.9641 14.9332Z" fill="white"/>
<path d="M95.3441 14.9332C95.3101 14.5781 95.3508 14.2198 95.4637 13.8813C95.5766 13.5428 95.7593 13.2316 95.9999 12.9676C96.2405 12.7037 96.5337 12.4927 96.8609 12.3484C97.188 12.2041 97.5418 12.1295 97.8995 12.1295C98.2572 12.1295 98.611 12.2041 98.9381 12.3484C99.2653 12.4927 99.5586 12.7037 99.7992 12.9676C100.04 13.2316 100.222 13.5428 100.335 13.8813C100.448 14.2198 100.489 14.5781 100.455 14.9332C100.49 15.2886 100.449 15.6474 100.337 15.9864C100.224 16.3255 100.042 16.6373 99.8009 16.9018C99.5603 17.1663 99.2668 17.3776 98.9393 17.5223C98.6119 17.6669 98.2577 17.7416 97.8995 17.7416C97.5414 17.7416 97.1872 17.6669 96.8597 17.5223C96.5322 17.3776 96.2387 17.1663 95.9981 16.9018C95.7574 16.6373 95.5749 16.3255 95.4623 15.9864C95.3497 15.6474 95.3094 15.2886 95.3441 14.9332ZM99.3549 14.9332C99.3549 13.7619 98.8273 13.0769 97.9013 13.0769C96.9717 13.0769 96.4488 13.7619 96.4488 14.9332C96.4488 16.1139 96.9718 16.7935 97.9013 16.7935C98.8273 16.7935 99.3549 16.1091 99.3549 14.9332Z" fill="white"/>
<path d="M101.889 12.2338H102.918V13.0922H102.998C103.134 12.7839 103.362 12.5254 103.652 12.3528C103.942 12.1803 104.279 12.1022 104.615 12.1295C104.879 12.1097 105.143 12.1493 105.39 12.2455C105.636 12.3416 105.857 12.4917 106.037 12.6847C106.217 12.8777 106.352 13.1087 106.43 13.3605C106.509 13.6122 106.529 13.8784 106.491 14.1392V17.6372H105.421V14.407C105.421 13.5387 105.043 13.1068 104.252 13.1068C104.073 13.0985 103.894 13.1289 103.728 13.1959C103.562 13.2629 103.412 13.3649 103.289 13.495C103.167 13.625 103.073 13.78 103.016 13.9494C102.959 14.1188 102.939 14.2984 102.958 14.4761V17.6373H101.889V12.2338Z" fill="white"/>
<path d="M112.534 10.8885V12.2584H113.708V13.1567H112.534V15.9352C112.534 16.5012 112.768 16.749 113.301 16.749C113.437 16.7486 113.573 16.7404 113.708 16.7244V17.6127C113.516 17.647 113.322 17.6652 113.127 17.6672C111.937 17.6672 111.464 17.25 111.464 16.2082V13.1566H110.604V12.2584H111.464V10.8885H112.534Z" fill="white"/>
<path d="M115.168 10.1244H116.228V13.1021H116.313C116.455 12.7909 116.69 12.531 116.985 12.3578C117.281 12.1846 117.623 12.1065 117.965 12.1342C118.227 12.1199 118.489 12.1636 118.733 12.262C118.976 12.3605 119.195 12.5113 119.373 12.7037C119.551 12.8961 119.685 13.1254 119.764 13.3751C119.843 13.6249 119.866 13.889 119.831 14.1486V17.6373H118.76V14.4117C118.76 13.5486 118.357 13.1115 117.602 13.1115C117.418 13.0965 117.233 13.1217 117.06 13.1853C116.887 13.249 116.73 13.3496 116.6 13.4801C116.47 13.6105 116.37 13.7678 116.308 13.9407C116.245 14.1137 116.221 14.2982 116.237 14.4814V17.6373H115.168L115.168 10.1244Z" fill="white"/>
<path d="M126.068 16.1783C125.922 16.6722 125.607 17.0993 125.178 17.3851C124.749 17.6709 124.233 17.7971 123.72 17.7416C123.363 17.751 123.008 17.6828 122.68 17.5418C122.352 17.4007 122.059 17.1902 121.821 16.9249C121.582 16.6595 121.405 16.3456 121.301 16.005C121.196 15.6645 121.168 15.3053 121.216 14.9525C121.169 14.5987 121.198 14.2388 121.302 13.8971C121.406 13.5555 121.583 13.2402 121.82 12.9725C122.057 12.7048 122.348 12.491 122.675 12.3456C123.002 12.2001 123.357 12.1264 123.715 12.1295C125.223 12.1295 126.132 13.1567 126.132 14.8535V15.2256H122.306V15.2854C122.289 15.4836 122.314 15.6832 122.379 15.8713C122.444 16.0594 122.548 16.2319 122.684 16.3776C122.82 16.5234 122.985 16.6392 123.168 16.7177C123.352 16.7962 123.549 16.8356 123.749 16.8334C124.005 16.864 124.264 16.818 124.493 16.7014C124.723 16.5847 124.913 16.4027 125.038 16.1783L126.068 16.1783ZM122.306 14.4369H125.043C125.056 14.2556 125.032 14.0734 124.97 13.9021C124.909 13.7309 124.812 13.5743 124.687 13.4425C124.561 13.3106 124.409 13.2065 124.241 13.1367C124.072 13.0668 123.891 13.0329 123.709 13.0371C123.524 13.0348 123.34 13.0694 123.169 13.139C122.998 13.2085 122.842 13.3115 122.711 13.442C122.581 13.5724 122.477 13.7277 122.408 13.8985C122.338 14.0694 122.303 14.2525 122.306 14.4369Z" fill="white"/>
</g>
<defs>
<clipPath id="clip0_1435_7567">
<rect width="144" height="48" fill="white"/>
</clipPath>
</defs>
</svg>
